<?xml version="1.0" encoding="utf-8"?>
<!-- Generator: Adobe Illustrator 26.2.1, SVG Export Plug-In . SVG Version: 6.00 Build 0)  -->
<svg version="1.1" baseProfile="tiny" id="レイヤー_1"
	 xmlns="http://www.w3.org/2000/svg" xmlns:xlink="http://www.w3.org/1999/xlink" x="0px" y="0px" viewBox="0 0 392.15 100.45"
	 overflow="visible" xml:space="preserve">
<g>
	<path fill="#F4AFBD" stroke="#F4AFBD" stroke-width="2" stroke-miterlimit="10" d="M139.18,28.27c0.57-1.96,1.35-3.71,3.67-3.72
		c2.39-0.02,3.27,1.79,3.79,3.67l14.28,49c0.52,1.74-1.42,3.64-3.46,3.65c-2.25,0.01-3.42-1.86-3.93-3.6l-2.73-8.68l-15.45,0.09
		l-2.71,8.72c-0.49,1.75-1.65,3.64-3.9,3.65c-2.03,0.01-4-1.86-3.5-3.6L139.18,28.27z M143.03,41.73h-0.14l-5.54,19.69l11.38-0.06
		L143.03,41.73z"/>
	<path fill="#F4AFBD" stroke="#F4AFBD" stroke-width="2" stroke-miterlimit="10" d="M184.71,77.1c0.02,2.32-0.99,3.63-3.6,3.65
		c-2.61,0.02-3.63-1.28-3.65-3.6l-0.3-52.79l24.08-0.14c3.33-0.02,5.73,0.47,8.35,2.92c3.14,2.89,3.44,5.56,3.47,9.48l0.05,9.87
		c0.02,3.7-0.25,6.31-2.92,9.3c-2.81,3.21-5.78,3.51-9.7,3.54l-15.88,0.09L184.71,77.1z M184.57,52.15l16.09-0.09
		c4.28-0.03,5.21-1.12,5.19-5.25l-0.06-10.15c-0.03-4.13-0.98-5.21-5.25-5.19l-16.09,0.09L184.57,52.15z"/>
	<path fill="#F4AFBD" stroke="#F4AFBD" stroke-width="2" stroke-miterlimit="10" d="M236.91,76.79c0.02,2.32-0.99,3.63-3.6,3.65
		c-2.61,0.02-3.63-1.28-3.65-3.6l-0.3-52.79l24.08-0.14c3.33-0.02,5.73,0.47,8.35,2.92c3.14,2.89,3.44,5.56,3.47,9.48l0.05,9.87
		c0.02,3.7-0.25,6.31-2.92,9.3c-2.8,3.21-5.78,3.51-9.7,3.54l-15.88,0.09L236.91,76.79z M236.77,51.85l16.09-0.09
		c4.27-0.03,5.21-1.12,5.19-5.25l-0.06-10.15c-0.03-4.13-0.98-5.21-5.25-5.19l-16.09,0.09L236.77,51.85z"/>
	<path fill="#F4AFBD" stroke="#F4AFBD" stroke-width="2" stroke-miterlimit="10" d="M314.03,72.72c1.88-0.01,3.63,0.99,3.65,3.6
		c0.02,2.61-1.72,3.64-3.6,3.65l-32.19,0.19l-0.33-56.41l32.19-0.19c1.88-0.01,3.63,0.99,3.65,3.6c0.02,2.61-1.72,3.64-3.6,3.65
		l-24.95,0.14l0.1,17.33l10.66-0.06c1.88-0.01,3.63,0.99,3.65,3.6c0.02,2.61-1.72,3.64-3.6,3.65l-10.66,0.06l0.1,17.33L314.03,72.72
		z"/>
	<path fill="#F4AFBD" stroke="#F4AFBD" stroke-width="2" stroke-miterlimit="10" d="M366.24,72.41c1.88-0.01,3.63,0.99,3.65,3.6
		c0.02,2.61-1.72,3.64-3.6,3.65l-32.19,0.19l-0.3-52.79c-0.02-2.32,0.99-3.63,3.6-3.65c2.61-0.02,3.63,1.28,3.65,3.6l0.27,45.54
		L366.24,72.41z"/>
</g>
<circle fill="#FFFFFF" cx="62.01" cy="46.42" r="36.23"/>
<g>
	<polygon fill="#F4AFBD" points="93.67,38.47 80.47,25.78 57.83,52.3 45.03,33.71 30.6,45.02 57.28,70.68 	"/>
	<path fill="#7ECEF4" d="M62.01,90.12c-24.1,0-43.7-19.6-43.7-43.7s19.6-43.7,43.7-43.7s43.7,19.6,43.7,43.7
		S86.11,90.12,62.01,90.12z M62.01,10.19c-19.98,0-36.23,16.25-36.23,36.23s16.25,36.23,36.23,36.23S98.24,66.4,98.24,46.42
		S81.99,10.19,62.01,10.19z"/>
	<g>
		<g>
			<path fill="#00A29A" d="M43.7,98.98c-1.19,0-1.89-0.16-2.36-0.55c-0.71-0.59-0.86-2.14-0.86-3.34c-3.29,0.32-7.2,0.5-11.2,0.5
				s-7.91-0.18-11.2-0.5c0,1.2-0.14,2.75-0.85,3.34c-0.47,0.38-1.18,0.55-2.36,0.55c-1.69,0-3.89-0.34-3.99-0.35l-0.64-0.1
				l-0.29-0.58c-0.51-1.02-0.45-3.39-0.37-4.7c-0.55-0.34-1.13-0.88-1.13-1.72c0-0.22,0.04-0.5,0.2-0.8L7.9,84.41L8,84.1
				c0.09-2.09,0.66-3.75,1.33-5.01c-0.67-0.2-1.07-0.43-1.33-0.75c-0.63-0.75-0.53-2.01-0.41-2.7l0.18-1.06l3.53,0.06l2.29-11.63
				l0.14-0.21c1.37-2,13.41-3.13,15.51-3.13c2.19,0,14.23,1.13,15.61,3.13l0.14,0.21l2.29,11.63l3.53-0.06l0.18,1.06
				c0.11,0.69,0.21,1.95-0.41,2.7c-0.26,0.32-0.65,0.55-1.34,0.75c0.67,1.26,1.24,2.93,1.33,5.01l0.1,0.31l-0.76,6.32
				c0.16,0.3,0.2,0.58,0.2,0.8c0,0.84-0.57,1.38-1.13,1.72c0.08,1.31,0.14,3.68-0.37,4.7l-0.29,0.58l-0.64,0.1
				C47.59,98.64,45.39,98.98,43.7,98.98L43.7,98.98z"/>
			<g>
				<path fill="#FFFFFF" d="M29.33,60.91c3.83,0,13.74,1.51,14.48,2.59l2.44,12.41l3.5-0.06c0,0,0.21,1.27-0.14,1.7
					c-0.26,0.32-1.48,0.56-2.4,0.71c0.84,1.08,2.02,3.1,2.11,6.07l0.07,0.21l-0.79,6.54c0.17,0.15,0.26,0.3,0.26,0.45
					c0,0.34-0.42,0.66-1.19,0.97c0.09,0.66,0.27,3.99-0.18,4.89c0,0-2.18,0.34-3.8,0.34c-0.73,0-1.33-0.07-1.58-0.27
					c-0.45-0.37-0.43-2.96-0.32-3.77c-3.39,0.4-7.76,0.65-12.52,0.65s-9.12-0.24-12.52-0.65c0.1,0.81,0.13,3.4-0.32,3.77
					c-0.24,0.2-0.85,0.27-1.58,0.27c-1.61,0-3.8-0.34-3.8-0.34c-0.45-0.91-0.27-4.23-0.18-4.89c-0.77-0.3-1.19-0.63-1.19-0.97
					c0-0.15,0.09-0.31,0.26-0.45l-0.79-6.54l0.07-0.21c0.09-2.97,1.27-4.99,2.11-6.07c-0.92-0.16-2.13-0.4-2.4-0.71
					c-0.35-0.42-0.14-1.7-0.14-1.7l3.5,0.06l2.44-12.41c0.74-1.08,10.65-2.59,14.48-2.59c0.02,0,0.03,0,0.05,0
					C29.3,60.91,29.32,60.91,29.33,60.91 M29.33,58.42L29.33,58.42L29.33,58.42h-0.06c-2.02,0-5.56,0.37-8.85,0.92
					c-6.1,1.03-7.11,1.85-7.72,2.75l-0.29,0.42l-0.1,0.5l-2.04,10.36l-1.41-0.03L6.71,73.3l-0.35,2.12
					c-0.18,1.09-0.21,2.62,0.68,3.7c0.18,0.22,0.4,0.41,0.64,0.57c-0.46,1.16-0.82,2.55-0.91,4.16l-0.14,0.41l0.07,0.55l0.69,5.71
					c-0.11,0.32-0.17,0.65-0.17,0.99c0,0.68,0.22,1.54,1.09,2.31c-0.06,1.47-0.02,3.54,0.54,4.67l0.58,1.15l1.27,0.2
					c0.1,0.01,2.39,0.37,4.18,0.37c1.06,0,2.26-0.1,3.15-0.83c0.79-0.65,1.14-1.8,1.27-2.95c3.03,0.25,6.48,0.38,10,0.38
					s6.97-0.13,10-0.38c0.13,1.14,0.47,2.3,1.26,2.94c0.89,0.73,2.09,0.83,3.15,0.83c1.78,0,4.08-0.35,4.17-0.37l1.27-0.2l0.58-1.15
					c0.57-1.13,0.6-3.2,0.54-4.67c0.87-0.76,1.09-1.62,1.09-2.31c0-0.34-0.06-0.67-0.17-0.99l0.69-5.71l0.07-0.55l-0.14-0.41
					c-0.09-1.62-0.45-3-0.91-4.16c0.24-0.16,0.45-0.35,0.64-0.57c0.9-1.08,0.87-2.61,0.68-3.7l-0.35-2.12l-2.15,0.04l-1.41,0.03
					L46.27,63l-0.1-0.5l-0.29-0.42c-0.61-0.9-1.62-1.72-7.72-2.75C34.86,58.79,31.31,58.42,29.33,58.42L29.33,58.42z"/>
			</g>
		</g>
		<g>
			
				<rect x="25.3" y="89.28" fill="#FFFFFF" stroke="#FFFFFF" stroke-width="2.0908" stroke-miterlimit="10" width="7.97" height="3.61"/>
			<path fill="#FFFFFF" stroke="#FFFFFF" stroke-width="2.0908" stroke-miterlimit="10" d="M29.28,75.02
				c5.25,0,9.99,0.38,13.35,0.99c0.31-3.26-0.49-8.14-1.02-10.85c-0.06-0.14-0.11-0.26-0.16-0.36c-0.75-0.29-1.57-0.56-2.44-0.8
				c-2.77-0.75-6.12-1.18-9.73-1.18s-6.96,0.44-9.73,1.18c-0.87,0.24-1.69,0.5-2.44,0.8c-0.05,0.1-0.11,0.22-0.16,0.36
				c-0.53,2.71-1.33,7.59-1.02,10.85C19.29,75.4,24.03,75.02,29.28,75.02z"/>
			<path fill="#FFFFFF" stroke="#FFFFFF" stroke-width="2.0908" stroke-miterlimit="10" d="M16.37,84.83
				c-1.44,0-2.61,1.17-2.61,2.61s1.17,2.61,2.61,2.61s2.61-1.17,2.61-2.61C18.98,86,17.81,84.83,16.37,84.83z"/>
			<path fill="#FFFFFF" stroke="#FFFFFF" stroke-width="2.0908" stroke-miterlimit="10" d="M42.2,84.83c-1.44,0-2.61,1.17-2.61,2.61
				s1.17,2.61,2.61,2.61c1.44,0,2.61-1.17,2.61-2.61C44.8,86,43.64,84.83,42.2,84.83z"/>
		</g>
	</g>
	<g>
		<path fill="#B39CC9" d="M49.75,75.85l-3.5,0.06L43.81,63.5c-0.74-1.09-10.74-2.6-14.53-2.59c-3.79-0.01-13.79,1.5-14.53,2.59
			l-2.44,12.41l-3.5-0.06c0,0-0.21,1.27,0.14,1.7c0.26,0.32,1.48,0.56,2.4,0.71c-0.84,1.08-2.02,3.1-2.11,6.07l-0.07,0.21l0.79,6.54
			c-0.17,0.15-0.26,0.3-0.26,0.45c0,0.34,0.42,0.66,1.19,0.97c-0.09,0.66-0.27,3.99,0.18,4.89c0,0,4.59,0.71,5.37,0.07
			c0.45-0.37,0.43-2.96,0.32-3.77c3.39,0.4,7.76,0.65,12.52,0.65s9.12-0.24,12.52-0.65c-0.1,0.81-0.13,3.4,0.32,3.77
			c0.78,0.64,5.37-0.07,5.37-0.07c0.45-0.91,0.27-4.23,0.18-4.89c0.77-0.3,1.19-0.63,1.19-0.97c0-0.15-0.09-0.31-0.26-0.45
			l0.79-6.54l-0.07-0.21c-0.09-2.97-1.27-4.99-2.11-6.07c0.92-0.16,2.13-0.4,2.4-0.71C49.96,77.12,49.75,75.85,49.75,75.85z"/>
		<g>
			<rect x="25.3" y="89.28" fill="#FFFFFF" width="7.97" height="3.61"/>
			<path fill="#FFFFFF" d="M29.28,75.02c5.25,0,9.99,0.38,13.35,0.99c0.31-3.26-0.49-8.14-1.02-10.85
				c-0.06-0.14-0.11-0.26-0.16-0.36c-0.75-0.29-1.57-0.56-2.44-0.8c-2.77-0.75-6.12-1.18-9.73-1.18s-6.96,0.44-9.73,1.18
				c-0.87,0.24-1.69,0.5-2.44,0.8c-0.05,0.1-0.11,0.22-0.16,0.36c-0.53,2.71-1.33,7.59-1.02,10.85
				C19.29,75.4,24.03,75.02,29.28,75.02z"/>
			<path fill="#FFFFFF" d="M16.37,84.83c-1.44,0-2.61,1.17-2.61,2.61s1.17,2.61,2.61,2.61s2.61-1.17,2.61-2.61
				C18.98,86,17.81,84.83,16.37,84.83z"/>
			<path fill="#FFFFFF" d="M42.2,84.83c-1.44,0-2.61,1.17-2.61,2.61s1.17,2.61,2.61,2.61c1.44,0,2.61-1.17,2.61-2.61
				C44.8,86,43.64,84.83,42.2,84.83z"/>
		</g>
	</g>
</g>
</svg>
