<?xml version="1.0" encoding="utf-8"?>
<!-- Generator: Adobe Illustrator 26.2.1, SVG Export Plug-In . SVG Version: 6.00 Build 0)  -->
<svg version="1.1" baseProfile="tiny" id="レイヤー_1"
	 xmlns="http://www.w3.org/2000/svg" xmlns:xlink="http://www.w3.org/1999/xlink" x="0px" y="0px" viewBox="0 0 110 110"
	 overflow="visible" xml:space="preserve">
<g>
	<polygon fill="#F4AFBD" points="91.44,43.25 78.24,30.55 55.6,57.08 42.8,38.49 28.37,49.8 55.05,75.45 	"/>
	<path fill="#7ECEF4" d="M59.78,94.89c-24.1,0-43.7-19.6-43.7-43.7s19.6-43.7,43.7-43.7s43.7,19.6,43.7,43.7
		S83.88,94.89,59.78,94.89z M59.78,14.96c-19.98,0-36.23,16.25-36.23,36.23S39.8,87.42,59.78,87.42s36.23-16.25,36.23-36.23
		S79.76,14.96,59.78,14.96z"/>
	<g>
		<g>
			<path fill="#00A29A" d="M41.47,103.75c-1.19,0-1.89-0.16-2.36-0.55c-0.71-0.59-0.86-2.14-0.86-3.34c-3.29,0.32-7.2,0.5-11.2,0.5
				s-7.91-0.18-11.2-0.5c0,1.2-0.14,2.75-0.85,3.34c-0.47,0.38-1.18,0.55-2.36,0.55c-1.69,0-3.89-0.34-3.99-0.35l-0.64-0.1
				l-0.29-0.58c-0.52-1.04-0.46-3.39-0.37-4.7c-0.55-0.34-1.13-0.88-1.13-1.72c0-0.22,0.04-0.5,0.2-0.8l-0.76-6.32l0.1-0.31
				c0.09-2.09,0.66-3.75,1.33-5.01c-0.69-0.2-1.07-0.43-1.34-0.75c-0.63-0.75-0.53-2.01-0.41-2.7l0.18-1.06l3.53,0.06l2.29-11.63
				l0.14-0.21c1.37-2,13.41-3.13,15.51-3.13c2.19,0,14.23,1.13,15.6,3.13l0.14,0.21l2.29,11.63l3.53-0.06l0.18,1.06
				c0.11,0.68,0.21,1.95-0.41,2.7c-0.27,0.32-0.65,0.55-1.34,0.75c0.67,1.26,1.24,2.93,1.33,5.01l0.1,0.31l-0.76,6.32
				c0.16,0.3,0.2,0.58,0.2,0.8c0,0.84-0.58,1.38-1.13,1.72c0.08,1.31,0.14,3.68-0.37,4.7l-0.29,0.58l-0.64,0.1
				C45.36,103.42,43.15,103.75,41.47,103.75L41.47,103.75z"/>
			<g>
				<path fill="#FFFFFF" d="M27.1,65.69c3.83,0,13.74,1.51,14.48,2.59l2.44,12.41l3.5-0.06c0,0,0.21,1.27-0.14,1.7
					c-0.26,0.32-1.48,0.56-2.4,0.71c0.84,1.08,2.02,3.1,2.11,6.07l0.07,0.21l-0.79,6.54c0.17,0.15,0.26,0.3,0.26,0.45
					c0,0.34-0.42,0.66-1.19,0.97c0.09,0.66,0.27,3.99-0.18,4.89c0,0-2.18,0.34-3.8,0.34c-0.73,0-1.33-0.07-1.58-0.27
					c-0.45-0.37-0.43-2.96-0.32-3.77c-3.39,0.4-7.76,0.65-12.52,0.65c-4.76,0-9.12-0.24-12.52-0.65c0.1,0.81,0.13,3.4-0.32,3.77
					c-0.24,0.2-0.85,0.27-1.58,0.27c-1.61,0-3.8-0.34-3.8-0.34c-0.45-0.91-0.27-4.23-0.18-4.89c-0.77-0.3-1.19-0.63-1.19-0.97
					c0-0.15,0.09-0.31,0.26-0.45l-0.79-6.54l0.07-0.21c0.09-2.97,1.27-4.99,2.11-6.07c-0.92-0.16-2.13-0.4-2.4-0.71
					c-0.35-0.42-0.14-1.7-0.14-1.7l3.5,0.06l2.44-12.41c0.74-1.08,10.65-2.59,14.48-2.59c0.02,0,0.03,0,0.05,0
					C27.07,65.69,27.08,65.69,27.1,65.69 M27.1,63.2L27.1,63.2L27.1,63.2l-0.06,0c-2.02,0-5.56,0.37-8.85,0.92
					c-6.1,1.03-7.11,1.85-7.72,2.75l-0.29,0.42l-0.1,0.5L8.04,78.16l-1.41-0.03l-2.15-0.04l-0.35,2.12
					c-0.18,1.09-0.21,2.62,0.68,3.7c0.18,0.22,0.39,0.41,0.64,0.57c-0.46,1.16-0.82,2.55-0.91,4.16L4.4,89.06l0.07,0.55l0.69,5.71
					c-0.11,0.32-0.17,0.65-0.17,0.99c0,0.68,0.22,1.54,1.09,2.31c-0.06,1.47-0.02,3.54,0.54,4.67l0.58,1.15l1.27,0.2
					c0.1,0.01,2.39,0.37,4.18,0.37c1.06,0,2.26-0.1,3.15-0.83c0.79-0.65,1.14-1.8,1.27-2.95c3.03,0.25,6.48,0.38,10,0.38
					c3.52,0,6.97-0.13,10-0.38c0.13,1.14,0.47,2.3,1.26,2.94c0.89,0.73,2.09,0.83,3.15,0.83c1.78,0,4.08-0.35,4.17-0.37l1.27-0.2
					l0.58-1.15c0.57-1.13,0.6-3.2,0.54-4.67c0.87-0.76,1.09-1.62,1.09-2.31c0-0.34-0.06-0.67-0.17-0.99l0.69-5.71l0.07-0.55
					l-0.14-0.41c-0.09-1.62-0.45-3-0.91-4.16c0.24-0.16,0.45-0.35,0.64-0.57c0.9-1.08,0.87-2.61,0.68-3.7l-0.35-2.12l-2.15,0.04
					l-1.41,0.03L44.02,67.8l-0.1-0.5l-0.29-0.42c-0.61-0.9-1.62-1.72-7.72-2.75C32.62,63.57,29.08,63.2,27.1,63.2L27.1,63.2z"/>
			</g>
		</g>
		<g>
			
				<rect x="23.07" y="94.05" fill="#FFFFFF" stroke="#FFFFFF" stroke-width="2.0908" stroke-miterlimit="10" width="7.97" height="3.61"/>
			<path fill="#FFFFFF" stroke="#FFFFFF" stroke-width="2.0908" stroke-miterlimit="10" d="M27.05,79.79
				c5.25,0,9.99,0.38,13.35,0.99c0.31-3.26-0.49-8.14-1.02-10.85c-0.06-0.14-0.11-0.26-0.16-0.36c-0.75-0.29-1.57-0.56-2.44-0.8
				c-2.77-0.75-6.12-1.18-9.73-1.18c-3.61,0-6.96,0.44-9.73,1.18c-0.87,0.24-1.69,0.5-2.44,0.8c-0.05,0.1-0.11,0.22-0.16,0.36
				c-0.53,2.71-1.33,7.59-1.02,10.85C17.06,80.17,21.8,79.79,27.05,79.79z"/>
			<path fill="#FFFFFF" stroke="#FFFFFF" stroke-width="2.0908" stroke-miterlimit="10" d="M14.14,89.6c-1.44,0-2.61,1.17-2.61,2.61
				c0,1.44,1.17,2.61,2.61,2.61c1.44,0,2.61-1.17,2.61-2.61C16.75,90.77,15.58,89.6,14.14,89.6z"/>
			<path fill="#FFFFFF" stroke="#FFFFFF" stroke-width="2.0908" stroke-miterlimit="10" d="M39.96,89.6c-1.44,0-2.61,1.17-2.61,2.61
				c0,1.44,1.17,2.61,2.61,2.61c1.44,0,2.61-1.17,2.61-2.61C42.57,90.77,41.4,89.6,39.96,89.6z"/>
		</g>
	</g>
	<g>
		<path fill="#B39CC9" d="M47.52,80.62l-3.5,0.06l-2.44-12.41c-0.74-1.09-10.74-2.6-14.53-2.59c-3.79-0.01-13.79,1.5-14.53,2.59
			l-2.44,12.41l-3.5-0.06c0,0-0.21,1.27,0.14,1.7c0.26,0.32,1.48,0.56,2.4,0.71c-0.84,1.08-2.02,3.1-2.11,6.07l-0.07,0.21l0.79,6.54
			c-0.17,0.15-0.26,0.3-0.26,0.45c0,0.34,0.42,0.66,1.19,0.97c-0.09,0.66-0.27,3.99,0.18,4.89c0,0,4.59,0.71,5.37,0.07
			c0.45-0.37,0.43-2.96,0.32-3.77c3.39,0.4,7.76,0.65,12.52,0.65c4.76,0,9.12-0.24,12.52-0.65c-0.1,0.81-0.13,3.4,0.32,3.77
			c0.78,0.64,5.37-0.07,5.37-0.07c0.45-0.91,0.27-4.23,0.18-4.89c0.77-0.3,1.19-0.63,1.19-0.97c0-0.15-0.09-0.31-0.26-0.45
			l0.79-6.54l-0.07-0.21c-0.09-2.97-1.27-4.99-2.11-6.07c0.92-0.16,2.13-0.4,2.4-0.71C47.73,81.89,47.52,80.62,47.52,80.62z"/>
		<g>
			<rect x="23.07" y="94.05" fill="#FFFFFF" width="7.97" height="3.61"/>
			<path fill="#FFFFFF" d="M27.05,79.79c5.25,0,9.99,0.38,13.35,0.99c0.31-3.26-0.49-8.14-1.02-10.85
				c-0.06-0.14-0.11-0.26-0.16-0.36c-0.75-0.29-1.57-0.56-2.44-0.8c-2.77-0.75-6.12-1.18-9.73-1.18c-3.61,0-6.96,0.44-9.73,1.18
				c-0.87,0.24-1.69,0.5-2.44,0.8c-0.05,0.1-0.11,0.22-0.16,0.36c-0.53,2.71-1.33,7.59-1.02,10.85
				C17.06,80.17,21.8,79.79,27.05,79.79z"/>
			<path fill="#FFFFFF" d="M14.14,89.6c-1.44,0-2.61,1.17-2.61,2.61c0,1.44,1.17,2.61,2.61,2.61c1.44,0,2.61-1.17,2.61-2.61
				C16.75,90.77,15.58,89.6,14.14,89.6z"/>
			<path fill="#FFFFFF" d="M39.96,89.6c-1.44,0-2.61,1.17-2.61,2.61c0,1.44,1.17,2.61,2.61,2.61c1.44,0,2.61-1.17,2.61-2.61
				C42.57,90.77,41.4,89.6,39.96,89.6z"/>
		</g>
	</g>
</g>
<g>
</g>
<g>
</g>
<g>
</g>
<g>
</g>
<g>
</g>
<g>
</g>
</svg>
