<?xml version="1.0" encoding="utf-8"?>
<!-- Generator: Adobe Illustrator 26.2.1, SVG Export Plug-In . SVG Version: 6.00 Build 0)  -->
<svg version="1.1" baseProfile="tiny" id="レイヤー_1"
	 xmlns="http://www.w3.org/2000/svg" xmlns:xlink="http://www.w3.org/1999/xlink" x="0px" y="0px" viewBox="0 0 120 135"
	 overflow="visible" xml:space="preserve">
<g>
	<g>
		<polygon fill="#F4AFBD" points="93.67,37.7 80.47,25.01 57.83,51.53 45.03,32.94 30.6,44.25 57.28,69.91 		"/>
		<path fill="#7ECEF4" d="M62.01,89.35c-24.1,0-43.7-19.6-43.7-43.7s19.6-43.7,43.7-43.7s43.7,19.6,43.7,43.7
			S86.11,89.35,62.01,89.35z M62.01,9.42c-19.98,0-36.23,16.25-36.23,36.23s16.25,36.23,36.23,36.23s36.23-16.25,36.23-36.23
			S81.99,9.42,62.01,9.42z"/>
		<g>
			<g>
				<path fill="#00A29A" d="M43.7,98.21c-1.19,0-1.9-0.16-2.36-0.55c-0.71-0.58-0.86-2.14-0.85-3.34c-3.28,0.32-7.19,0.5-11.2,0.5
					s-7.91-0.18-11.2-0.5c0,1.2-0.14,2.76-0.86,3.34c-0.47,0.38-1.17,0.55-2.36,0.55c-1.69,0-3.89-0.34-3.98-0.35l-0.64-0.1
					l-0.29-0.58c-0.51-1.02-0.45-3.39-0.37-4.7c-0.55-0.34-1.13-0.88-1.13-1.72c0-0.22,0.04-0.5,0.2-0.8L7.9,83.64l0.1-0.31
					c0.09-2.09,0.66-3.75,1.33-5.01C8.66,78.12,8.27,77.89,8,77.57c-0.63-0.75-0.53-2.01-0.41-2.7l0.18-1.06l3.53,0.06l2.29-11.63
					l0.14-0.21c1.37-2,13.41-3.13,15.51-3.13c2.19,0,14.23,1.13,15.61,3.13l0.14,0.21l2.29,11.63l3.53-0.06l0.18,1.06
					c0.11,0.69,0.21,1.95-0.41,2.7c-0.26,0.32-0.65,0.55-1.34,0.75c0.67,1.26,1.24,2.93,1.33,5.01l0.1,0.31l-0.76,6.32
					c0.16,0.3,0.2,0.58,0.2,0.8c0,0.84-0.57,1.38-1.13,1.72c0.08,1.31,0.14,3.68-0.37,4.7l-0.29,0.58l-0.64,0.1
					C47.59,97.87,45.39,98.21,43.7,98.21C43.7,98.21,43.7,98.21,43.7,98.21z"/>
				<g>
					<path fill="#FFFFFF" d="M29.33,60.14c3.83,0,13.74,1.51,14.48,2.59l2.44,12.41l3.5-0.06c0,0,0.21,1.27-0.14,1.7
						c-0.26,0.32-1.48,0.56-2.4,0.71c0.84,1.08,2.02,3.1,2.11,6.07l0.07,0.21l-0.79,6.54c0.17,0.15,0.26,0.3,0.26,0.45
						c0,0.34-0.42,0.66-1.19,0.97c0.09,0.66,0.27,3.99-0.18,4.89c0,0-2.18,0.34-3.8,0.34c-0.73,0-1.33-0.07-1.58-0.27
						c-0.45-0.37-0.43-2.96-0.32-3.77c-3.39,0.4-7.76,0.65-12.52,0.65c-4.76,0-9.12-0.24-12.52-0.65c0.1,0.81,0.13,3.4-0.32,3.77
						c-0.24,0.2-0.85,0.27-1.58,0.27c-1.61,0-3.8-0.34-3.8-0.34c-0.45-0.91-0.27-4.23-0.18-4.89c-0.77-0.3-1.19-0.63-1.19-0.97
						c0-0.15,0.09-0.31,0.26-0.45l-0.79-6.54l0.07-0.21c0.09-2.97,1.27-4.99,2.11-6.07c-0.92-0.16-2.13-0.4-2.4-0.71
						c-0.35-0.42-0.14-1.7-0.14-1.7l3.5,0.06l2.44-12.41c0.74-1.08,10.65-2.59,14.48-2.59c0.02,0,0.03,0,0.05,0
						C29.3,60.14,29.32,60.14,29.33,60.14 M29.33,57.65L29.33,57.65L29.33,57.65l-0.06,0c-2.02,0-5.56,0.37-8.85,0.92
						c-6.1,1.03-7.11,1.85-7.72,2.75l-0.29,0.42l-0.1,0.5l-2.04,10.36l-1.41-0.03l-2.15-0.04l-0.35,2.12
						c-0.18,1.09-0.21,2.62,0.68,3.7c0.18,0.22,0.4,0.41,0.64,0.57c-0.46,1.16-0.82,2.55-0.91,4.16l-0.14,0.41l0.07,0.55l0.69,5.71
						c-0.11,0.32-0.17,0.65-0.17,0.99c0,0.68,0.22,1.54,1.09,2.31c-0.06,1.47-0.02,3.54,0.54,4.67l0.58,1.15l1.27,0.2
						c0.1,0.01,2.39,0.37,4.18,0.37c1.06,0,2.26-0.1,3.15-0.83c0.79-0.65,1.14-1.8,1.27-2.95c3.03,0.25,6.48,0.38,10,0.38
						c3.52,0,6.97-0.13,10-0.38c0.13,1.14,0.47,2.3,1.26,2.94c0.89,0.73,2.09,0.83,3.15,0.83c1.78,0,4.08-0.35,4.17-0.37l1.27-0.2
						l0.58-1.15c0.57-1.13,0.6-3.2,0.54-4.67c0.87-0.76,1.09-1.62,1.09-2.31c0-0.34-0.06-0.67-0.17-0.99l0.69-5.71l0.07-0.55
						L51.8,83.1c-0.09-1.62-0.45-3-0.91-4.16c0.24-0.16,0.45-0.35,0.64-0.57c0.9-1.08,0.87-2.61,0.68-3.7l-0.35-2.12l-2.15,0.04
						l-1.41,0.03l-2.04-10.36l-0.1-0.5l-0.29-0.42c-0.61-0.9-1.62-1.72-7.72-2.75C34.86,58.02,31.31,57.65,29.33,57.65L29.33,57.65z
						"/>
				</g>
			</g>
			<g>
				
					<rect x="25.3" y="88.51" fill="#FFFFFF" stroke="#FFFFFF" stroke-width="2.0908" stroke-miterlimit="10" width="7.97" height="3.61"/>
				<path fill="#FFFFFF" stroke="#FFFFFF" stroke-width="2.0908" stroke-miterlimit="10" d="M29.28,74.25
					c5.25,0,9.99,0.38,13.35,0.99c0.31-3.26-0.49-8.14-1.02-10.85c-0.06-0.14-0.11-0.26-0.16-0.36c-0.75-0.29-1.57-0.56-2.44-0.8
					c-2.77-0.75-6.12-1.18-9.73-1.18c-3.61,0-6.96,0.44-9.73,1.18c-0.87,0.24-1.69,0.5-2.44,0.8c-0.05,0.1-0.11,0.22-0.16,0.36
					c-0.53,2.71-1.33,7.59-1.02,10.85C19.29,74.63,24.03,74.25,29.28,74.25z"/>
				<path fill="#FFFFFF" stroke="#FFFFFF" stroke-width="2.0908" stroke-miterlimit="10" d="M16.37,84.06
					c-1.44,0-2.61,1.17-2.61,2.61c0,1.44,1.17,2.61,2.61,2.61c1.44,0,2.61-1.17,2.61-2.61C18.98,85.23,17.81,84.06,16.37,84.06z"/>
				<path fill="#FFFFFF" stroke="#FFFFFF" stroke-width="2.0908" stroke-miterlimit="10" d="M42.2,84.06
					c-1.44,0-2.61,1.17-2.61,2.61c0,1.44,1.17,2.61,2.61,2.61c1.44,0,2.61-1.17,2.61-2.61C44.8,85.23,43.64,84.06,42.2,84.06z"/>
			</g>
		</g>
		<g>
			<path fill="#B39CC9" d="M49.75,75.08l-3.5,0.06l-2.44-12.41c-0.74-1.09-10.74-2.6-14.53-2.59c-3.79-0.01-13.79,1.5-14.53,2.59
				l-2.44,12.41l-3.5-0.06c0,0-0.21,1.27,0.14,1.7c0.26,0.32,1.48,0.56,2.4,0.71c-0.84,1.08-2.02,3.1-2.11,6.07l-0.07,0.21
				l0.79,6.54c-0.17,0.15-0.26,0.3-0.26,0.45c0,0.34,0.42,0.66,1.19,0.97c-0.09,0.66-0.27,3.99,0.18,4.89c0,0,4.59,0.71,5.37,0.07
				c0.45-0.37,0.43-2.96,0.32-3.77c3.39,0.4,7.76,0.65,12.52,0.65c4.76,0,9.12-0.24,12.52-0.65c-0.1,0.81-0.13,3.4,0.32,3.77
				c0.78,0.64,5.37-0.07,5.37-0.07c0.45-0.91,0.27-4.23,0.18-4.89c0.77-0.3,1.19-0.63,1.19-0.97c0-0.15-0.09-0.31-0.26-0.45
				l0.79-6.54l-0.07-0.21c-0.09-2.97-1.27-4.99-2.11-6.07c0.92-0.16,2.13-0.4,2.4-0.71C49.96,76.35,49.75,75.08,49.75,75.08z"/>
			<g>
				<rect x="25.3" y="88.51" fill="#FFFFFF" width="7.97" height="3.61"/>
				<path fill="#FFFFFF" d="M29.28,74.25c5.25,0,9.99,0.38,13.35,0.99c0.31-3.26-0.49-8.14-1.02-10.85
					c-0.06-0.14-0.11-0.26-0.16-0.36c-0.75-0.29-1.57-0.56-2.44-0.8c-2.77-0.75-6.12-1.18-9.73-1.18c-3.61,0-6.96,0.44-9.73,1.18
					c-0.87,0.24-1.69,0.5-2.44,0.8c-0.05,0.1-0.11,0.22-0.16,0.36c-0.53,2.71-1.33,7.59-1.02,10.85
					C19.29,74.63,24.03,74.25,29.28,74.25z"/>
				<path fill="#FFFFFF" d="M16.37,84.06c-1.44,0-2.61,1.17-2.61,2.61c0,1.44,1.17,2.61,2.61,2.61c1.44,0,2.61-1.17,2.61-2.61
					C18.98,85.23,17.81,84.06,16.37,84.06z"/>
				<path fill="#FFFFFF" d="M42.2,84.06c-1.44,0-2.61,1.17-2.61,2.61c0,1.44,1.17,2.61,2.61,2.61c1.44,0,2.61-1.17,2.61-2.61
					C44.8,85.23,43.64,84.06,42.2,84.06z"/>
			</g>
		</g>
	</g>
	<g>
		<path fill="#F4AFBD" stroke="#F4AFBD" stroke-width="0.9678" stroke-miterlimit="10" d="M9.84,108.62
			c0.26-0.91,0.63-1.72,1.7-1.72c1.11-0.01,1.52,0.83,1.76,1.7l6.61,22.69c0.24,0.8-0.66,1.68-1.6,1.69
			c-1.04,0.01-1.58-0.86-1.82-1.67l-1.27-4.02l-7.15,0.04l-1.25,4.04c-0.23,0.81-0.76,1.68-1.8,1.69c-0.94,0.01-1.85-0.86-1.62-1.67
			L9.84,108.62z M11.62,114.85h-0.07l-2.56,9.11l5.27-0.03L11.62,114.85z"/>
		<path fill="#F4AFBD" stroke="#F4AFBD" stroke-width="0.9678" stroke-miterlimit="10" d="M30.92,131.22
			c0.01,1.07-0.46,1.68-1.67,1.69c-1.21,0.01-1.68-0.59-1.69-1.67l-0.14-24.44l11.15-0.06c1.54-0.01,2.65,0.22,3.87,1.35
			c1.45,1.33,1.59,2.58,1.6,4.39l0.03,4.57c0.01,1.71-0.12,2.92-1.35,4.3c-1.3,1.48-2.68,1.63-4.49,1.64l-7.35,0.04L30.92,131.22z
			 M30.85,119.67l7.45-0.04c1.98-0.01,2.41-0.52,2.4-2.43l-0.03-4.7c-0.01-1.91-0.45-2.41-2.43-2.4l-7.45,0.04L30.85,119.67z"/>
		<path fill="#F4AFBD" stroke="#F4AFBD" stroke-width="0.9678" stroke-miterlimit="10" d="M55.08,131.08
			c0.01,1.07-0.46,1.68-1.67,1.69s-1.68-0.59-1.69-1.67l-0.14-24.44l11.15-0.06c1.54-0.01,2.65,0.22,3.87,1.35
			c1.45,1.33,1.59,2.58,1.6,4.39l0.03,4.57c0.01,1.71-0.12,2.92-1.35,4.3c-1.3,1.48-2.68,1.63-4.49,1.64l-7.35,0.04L55.08,131.08z
			 M55.02,119.53l7.45-0.04c1.98-0.01,2.41-0.52,2.4-2.43l-0.03-4.7c-0.01-1.91-0.45-2.41-2.43-2.4L54.96,110L55.02,119.53z"/>
		<path fill="#F4AFBD" stroke="#F4AFBD" stroke-width="0.9678" stroke-miterlimit="10" d="M90.79,129.19
			c0.87-0.01,1.68,0.46,1.69,1.67c0.01,1.21-0.8,1.68-1.67,1.69l-14.9,0.09l-0.15-26.12l14.9-0.09c0.87-0.01,1.68,0.46,1.69,1.67
			c0.01,1.21-0.8,1.68-1.67,1.69l-11.55,0.07l0.05,8.02l4.93-0.03c0.87-0.01,1.68,0.46,1.69,1.67c0.01,1.21-0.8,1.68-1.67,1.69
			l-4.93,0.03l0.05,8.02L90.79,129.19z"/>
		<path fill="#F4AFBD" stroke="#F4AFBD" stroke-width="0.9678" stroke-miterlimit="10" d="M114.96,129.05
			c0.87-0.01,1.68,0.46,1.69,1.67c0.01,1.21-0.8,1.68-1.67,1.69l-14.9,0.09l-0.14-24.44c-0.01-1.07,0.46-1.68,1.67-1.69
			c1.21-0.01,1.68,0.59,1.69,1.67l0.12,21.08L114.96,129.05z"/>
	</g>
</g>
<g>
</g>
<g>
</g>
<g>
</g>
<g>
</g>
<g>
</g>
<g>
</g>
</svg>
