<?xml version="1.0" encoding="utf-8"?>
<!-- Generator: Adobe Illustrator 26.2.1, SVG Export Plug-In . SVG Version: 6.00 Build 0)  -->
<svg version="1.1" id="レイヤー_1" xmlns="http://www.w3.org/2000/svg" xmlns:xlink="http://www.w3.org/1999/xlink" x="0px"
	 y="0px" viewBox="0 0 200 200" style="enable-background:new 0 0 200 200;" xml:space="preserve">
<style type="text/css">
	.st0{stroke:#000000;stroke-width:4;stroke-miterlimit:10;}
	.st1{fill:none;stroke:#000000;stroke-width:4;stroke-miterlimit:10;}
	.st2{fill:none;stroke:#FFFFFF;stroke-width:6;stroke-miterlimit:10;}
	.st3{fill:#DCDDDD;stroke:#000000;stroke-miterlimit:10;}
	.st4{fill:none;stroke:#000000;stroke-miterlimit:10;}
	.st5{fill:#FFFFFF;stroke:#000000;stroke-miterlimit:10;}
</style>
<path class="st0" d="M168.12,89.67H87.76c-2.1,0-3.81,1.84-3.81,4.1v0c0,2.27,1.71,4.1,3.81,4.1h22.22c1.79,0,3.34,1.35,3.72,3.23
	l8.34,41.27c0.38,1.89,4.11,2.63,5.91,2.63l0,0c1.79,0,6.63-0.23,7.02-2.12l7.25-41.78c0.38-1.89,1.93-3.23,3.72-3.23h22.19
	c2.1,0,3.81-1.84,3.81-4.1v0C171.93,91.51,170.23,89.67,168.12,89.67z"/>
<circle class="st1" cx="127.94" cy="98.52" r="60.81"/>
<circle class="st1" cx="127.94" cy="98.52" r="46.49"/>
<circle class="st2" cx="127.94" cy="98.52" r="54.43"/>
<g>
	<path class="st3" d="M39.52,76.87H14.06c-0.16,0-0.28-0.13-0.28-0.28V60.38c0-0.47,0.38-0.86,0.86-0.86h24.31
		c0.48,0,0.86,0.39,0.86,0.86v16.2C39.81,76.74,39.68,76.87,39.52,76.87z"/>
	<rect x="24.27" y="81.21" class="st4" width="5.05" height="8.68"/>
	<path class="st3" d="M38.97,154.92H14.64c-0.48,0-0.86-0.39-0.86-0.86V94.51c0-0.16,0.13-0.28,0.28-0.28h25.48
		c0.15,0,0.27,0.12,0.27,0.27v59.58C39.81,154.54,39.44,154.92,38.97,154.92z"/>
	<rect x="18.12" y="76.87" class="st4" width="17.36" height="17.36"/>
	<path class="st5" d="M34.04,135.99H19.53c-0.78,0-1.42-0.63-1.42-1.42v-27.76c0-0.79,0.64-1.43,1.43-1.43h14.51
		c0.78,0,1.42,0.63,1.42,1.42v27.76C35.47,135.35,34.83,135.99,34.04,135.99z"/>
</g>
</svg>
