<?xml version="1.0" standalone="no"?>
<!DOCTYPE svg PUBLIC "-//W3C//DTD SVG 20010904//EN"
 "http://www.w3.org/TR/2001/REC-SVG-20010904/DTD/svg10.dtd">
<svg version="1.0" xmlns="http://www.w3.org/2000/svg"
 width="700.000000pt" height="700.000000pt" viewBox="0 0 700.000000 700.000000"
 preserveAspectRatio="xMidYMid meet">
<metadata>
Created by potrace 1.14, written by Peter Selinger 2001-2017
</metadata>
<g transform="translate(0.000000,700.000000) scale(0.100000,-0.100000)"
fill="#000000" stroke="none">
<path d="M3727 6524 c-1 -1 -49 -4 -107 -8 -58 -3 -114 -8 -125 -10 -11 -2
-47 -7 -80 -11 -32 -4 -68 -9 -80 -11 -11 -2 -45 -8 -75 -14 -101 -19 -274
-68 -403 -114 -797 -290 -1408 -915 -1690 -1731 -33 -96 -90 -318 -101 -397
-4 -21 -8 -55 -11 -75 -3 -21 -8 -48 -10 -59 -24 -110 -24 -553 -1 -694 2 -14
7 -47 11 -73 4 -27 8 -59 11 -70 20 -108 39 -191 59 -258 12 -43 22 -79 21
-80 -2 -1 -28 -6 -61 -13 -29 -6 -46 -9 -110 -22 -71 -14 -203 -58 -242 -80
-74 -43 -81 -60 -128 -304 -3 -14 -7 -36 -10 -50 -20 -100 -45 -229 -49 -250
-3 -14 -10 -50 -16 -80 -6 -30 -13 -60 -14 -67 -4 -24 -18 -27 -126 -24 l-110
2 -1 -25 c-1 -14 -2 -29 -3 -33 -1 -5 -6 -37 -11 -73 -16 -117 -2 -191 48
-243 l32 -34 -23 -79 c-12 -43 -25 -103 -28 -133 -3 -30 -7 -58 -10 -63 -3 -4
0 -44 5 -90 6 -46 13 -105 16 -133 4 -27 10 -76 14 -107 4 -31 6 -86 3 -122
-4 -67 10 -113 47 -152 13 -15 18 -36 18 -84 0 -113 12 -182 42 -247 17 -35
34 -63 40 -63 5 0 43 -4 83 -10 144 -18 166 -20 244 -21 178 -2 254 55 289
214 5 27 8 28 52 22 207 -24 994 -24 1185 0 l36 5 11 -51 c35 -163 135 -209
401 -184 164 16 210 26 226 51 38 57 56 129 60 238 3 96 6 112 28 140 31 41
46 96 39 144 -8 54 0 142 12 142 3 0 62 -11 132 -25 209 -40 321 -50 543 -50
502 1 921 113 1385 369 76 43 315 206 345 236 3 3 39 34 80 69 378 325 667
757 825 1235 32 95 76 262 90 341 36 207 48 326 48 515 0 126 -9 299 -18 352
-2 13 -6 39 -9 58 -33 269 -147 622 -286 886 -64 122 -64 121 -158 262 -84
126 -153 215 -271 347 -42 47 -221 214 -276 258 -33 27 -68 55 -78 63 -98 80
-353 235 -498 302 -223 103 -526 199 -719 226 -19 3 -51 8 -70 11 -65 10 -105
14 -210 21 -94 6 -259 11 -263 8z m313 -487 c19 -4 58 -9 85 -12 355 -43 749
-206 1060 -439 113 -85 127 -98 245 -216 103 -102 117 -118 191 -210 43 -54
149 -207 149 -216 0 -3 9 -18 19 -33 34 -47 138 -262 174 -361 56 -151 106
-344 123 -480 3 -25 8 -56 10 -70 3 -14 7 -108 9 -210 3 -166 -9 -354 -29
-440 -3 -14 -8 -36 -10 -50 -33 -200 -161 -540 -269 -714 -110 -178 -150 -234
-251 -351 -357 -411 -862 -692 -1386 -771 -19 -2 -46 -7 -60 -9 -42 -7 -230
-18 -310 -18 -202 2 -426 34 -616 89 -47 13 -52 18 -63 56 -12 39 -11 42 17
72 53 57 70 142 51 256 -5 30 -12 70 -15 88 l-5 33 -110 -2 c-61 -1 -112 1
-115 3 -2 3 -7 16 -9 29 -3 13 -10 49 -16 79 -5 30 -12 66 -15 80 -3 14 -12
59 -20 100 -9 41 -17 82 -19 90 -5 26 -18 95 -20 105 -2 6 -10 50 -19 99 -19
98 -32 130 -68 163 -52 49 -201 95 -443 139 -22 4 -47 9 -55 10 -8 2 -37 6
-65 9 -27 3 -61 8 -75 10 -14 2 -50 7 -80 10 -30 4 -68 8 -84 11 -16 3 -92 7
-168 9 -76 2 -142 6 -147 9 -24 15 -103 349 -118 502 -15 152 -9 489 12 604 1
8 6 35 10 60 3 25 20 99 37 165 151 595 549 1117 1088 1427 81 47 159 84 346
164 39 17 264 82 307 89 18 3 55 10 82 15 88 17 108 20 185 26 41 3 76 7 78 9
5 5 347 -3 382 -8z"/>
<path d="M4845 4898 c-72 -84 -240 -280 -374 -437 -134 -157 -265 -310 -290
-340 -25 -30 -59 -70 -76 -89 -40 -47 -157 -184 -214 -251 -25 -29 -53 -62
-61 -71 -26 -32 -45 -54 -86 -101 -21 -25 -55 -64 -74 -88 -19 -23 -46 -54
-60 -69 -14 -15 -35 -40 -48 -56 -12 -16 -24 -27 -26 -25 -6 8 -141 204 -209
304 -38 55 -92 134 -121 175 -29 41 -88 127 -131 190 -181 265 -230 335 -237
338 -4 2 -8 8 -8 13 0 5 -24 42 -54 83 l-53 75 -129 -100 c-71 -56 -142 -111
-157 -123 -16 -11 -34 -26 -40 -31 -13 -12 -184 -145 -237 -185 -18 -14 -38
-30 -44 -36 -6 -5 -42 -34 -81 -64 -96 -73 -208 -161 -219 -171 -6 -5 21 -38
65 -80 41 -39 166 -160 278 -268 112 -108 227 -218 256 -246 48 -46 324 -311
525 -505 610 -587 561 -542 579 -527 24 20 380 335 421 372 19 17 60 53 90 80
30 26 89 78 129 114 41 36 100 88 130 115 31 27 89 78 129 114 41 36 83 74 95
85 12 10 51 44 86 75 35 31 72 64 81 72 9 8 48 42 86 76 99 88 347 307 428
378 38 34 81 72 95 85 33 30 138 123 171 151 14 12 56 49 94 83 38 34 78 70
90 80 12 10 50 44 85 75 35 31 70 61 78 67 15 11 -3 29 -727 724 -52 50 -97
91 -100 91 -3 0 -64 -68 -135 -152z"/>
</g>
</svg>
